REM DIRINDEX 1\2,1\3,1\4,1\5
REM DIRNAME cjc044,folder01,folder02,folder03,folder04
TITLE ""
FILE "1800_129.mp3" MP3
  TRACK 01 AUDIO
    TITLE "2:cjc044_3813"
    INDEX 01 00:00:00
  TRACK 02 AUDIO
    TITLE "0:"
    INDEX 01 00:00:64
  TRACK 03 AUDIO
    TITLE "3:cjc044_3814"
    INDEX 01 00:01:58
  TRACK 04 AUDIO
    TITLE "0:"
    INDEX 01 00:02:61
  TRACK 05 AUDIO
    TITLE "4:cjc044_3815"
    INDEX 01 00:03:53
  TRACK 06 AUDIO
    TITLE "0:"
    INDEX 01 00:04:52
  TRACK 07 AUDIO
    TITLE "5:cjc044_3816"
    INDEX 01 00:05:32
  TRACK 08 AUDIO
    TITLE "0:"
    INDEX 01 00:08:01
  TRACK 09 AUDIO
    TITLE "2:cjc044_3817"
    INDEX 01 00:09:71
  TRACK 10 AUDIO
    TITLE "0:"
    INDEX 01 00:10:68
  TRACK 11 AUDIO
    TITLE "3:cjc044_3818"
    INDEX 01 00:11:56
  TRACK 12 AUDIO
    TITLE "0:"
    INDEX 01 00:12:71
  TRACK 13 AUDIO
    TITLE "4:cjc044_3819"
    INDEX 01 00:13:61
  TRACK 14 AUDIO
    TITLE "0:"
    INDEX 01 00:14:56
  TRACK 15 AUDIO
    TITLE "5:cjc044_3820"
    INDEX 01 00:15:30
  TRACK 16 AUDIO
    TITLE "0:"
    INDEX 01 00:18:56
  TRACK 17 AUDIO
    TITLE "2:cjc044_3821"
    INDEX 01 00:20:41
  TRACK 18 AUDIO
    TITLE "0:"
    INDEX 01 00:21:49
  TRACK 19 AUDIO
    TITLE "3:cjc044_3822"
    INDEX 01 00:22:36
  TRACK 20 AUDIO
    TITLE "0:"
    INDEX 01 00:23:50
  TRACK 21 AUDIO
    TITLE "4:cjc044_3823"
    INDEX 01 00:24:33
  TRACK 22 AUDIO
    TITLE "0:"
    INDEX 01 00:25:43
  TRACK 23 AUDIO
    TITLE "5:cjc044_3824"
    INDEX 01 00:26:28
  TRACK 24 AUDIO
    TITLE "0:"
    INDEX 01 00:29:64
  TRACK 25 AUDIO
    TITLE "2:cjc044_3825"
    INDEX 01 00:31:49
  TRACK 26 AUDIO
    TITLE "0:"
    INDEX 01 00:32:58
  TRACK 27 AUDIO
    TITLE "3:cjc044_3826"
    INDEX 01 00:33:44
  TRACK 28 AUDIO
    TITLE "0:"
    INDEX 01 00:34:26
  TRACK 29 AUDIO
    TITLE "4:cjc044_3827"
    INDEX 01 00:35:12
  TRACK 30 AUDIO
    TITLE "0:"
    INDEX 01 00:36:23
  TRACK 31 AUDIO
    TITLE "5:cjc044_3828"
    INDEX 01 00:37:08
  TRACK 32 AUDIO
    TITLE "0:"
    INDEX 01 00:39:47
  TRACK 33 AUDIO
    TITLE "2:cjc044_3829"
    INDEX 01 00:41:26
  TRACK 34 AUDIO
    TITLE "0:"
    INDEX 01 00:42:41
  TRACK 35 AUDIO
    TITLE "3:cjc044_3830"
    INDEX 01 00:43:27
  TRACK 36 AUDIO
    TITLE "0:"
    INDEX 01 00:44:58
  TRACK 37 AUDIO
    TITLE "4:cjc044_3831"
    INDEX 01 00:45:37
  TRACK 38 AUDIO
    TITLE "0:"
    INDEX 01 00:46:49
  TRACK 39 AUDIO
    TITLE "5:cjc044_3832"
    INDEX 01 00:47:40
  TRACK 40 AUDIO
    TITLE "0:"
    INDEX 01 00:50:11
  TRACK 41 AUDIO
    TITLE "2:cjc044_3833"
    INDEX 01 00:51:73
  TRACK 42 AUDIO
    TITLE "0:"
    INDEX 01 00:53:17
  TRACK 43 AUDIO
    TITLE "3:cjc044_3834"
    INDEX 01 00:54:05
  TRACK 44 AUDIO
    TITLE "0:"
    INDEX 01 00:55:34
  TRACK 45 AUDIO
    TITLE "4:cjc044_3835"
    INDEX 01 00:56:20
  TRACK 46 AUDIO
    TITLE "0:"
    INDEX 01 00:57:37
  TRACK 47 AUDIO
    TITLE "5:cjc044_3836"
    INDEX 01 00:58:24
  TRACK 48 AUDIO
    TITLE "0:"
    INDEX 01 01:01:56
  TRACK 49 AUDIO
    TITLE "2:cjc044_3837"
    INDEX 01 01:03:41
  TRACK 50 AUDIO
    TITLE "0:"
    INDEX 01 01:04:47
  TRACK 51 AUDIO
    TITLE "3:cjc044_3838"
    INDEX 01 01:05:36
  TRACK 52 AUDIO
    TITLE "0:"
    INDEX 01 01:06:38
  TRACK 53 AUDIO
    TITLE "4:cjc044_3839"
    INDEX 01 01:07:21
  TRACK 54 AUDIO
    TITLE "0:"
    INDEX 01 01:08:35
  TRACK 55 AUDIO
    TITLE "5:cjc044_3840"
    INDEX 01 01:09:05
  TRACK 56 AUDIO
    TITLE "0:"
    INDEX 01 01:11:43
  TRACK 57 AUDIO
    TITLE "2:cjc044_3841"
    INDEX 01 01:13:38
  TRACK 58 AUDIO
    TITLE "0:"
    INDEX 01 01:14:41
  TRACK 59 AUDIO
    TITLE "3:cjc044_3842"
    INDEX 01 01:15:29
  TRACK 60 AUDIO
    TITLE "0:"
    INDEX 01 01:16:22
  TRACK 61 AUDIO
    TITLE "4:cjc044_3843"
    INDEX 01 01:17:06
  TRACK 62 AUDIO
    TITLE "0:"
    INDEX 01 01:18:07
  TRACK 63 AUDIO
    TITLE "5:cjc044_3844"
    INDEX 01 01:18:60
  TRACK 64 AUDIO
    TITLE "0:"
    INDEX 01 01:22:05
  TRACK 65 AUDIO
    TITLE "2:cjc044_3845"
    INDEX 01 01:23:63
  TRACK 66 AUDIO
    TITLE "0:"
    INDEX 01 01:24:55
  TRACK 67 AUDIO
    TITLE "3:cjc044_3846"
    INDEX 01 01:25:45
  TRACK 68 AUDIO
    TITLE "0:"
    INDEX 01 01:26:46
  TRACK 69 AUDIO
    TITLE "4:cjc044_3847"
    INDEX 01 01:27:30
  TRACK 70 AUDIO
    TITLE "0:"
    INDEX 01 01:28:25
  TRACK 71 AUDIO
    TITLE "5:cjc044_3848"
    INDEX 01 01:29:01
  TRACK 72 AUDIO
    TITLE "0:"
    INDEX 01 01:32:25
  TRACK 73 AUDIO
    TITLE "2:cjc044_3849"
    INDEX 01 01:34:18
  TRACK 74 AUDIO
    TITLE "0:"
    INDEX 01 01:35:14
  TRACK 75 AUDIO
    TITLE "3:cjc044_3850"
    INDEX 01 01:36:01
  TRACK 76 AUDIO
    TITLE "0:"
    INDEX 01 01:37:22
  TRACK 77 AUDIO
    TITLE "4:cjc044_3851"
    INDEX 01 01:38:08
  TRACK 78 AUDIO
    TITLE "0:"
    INDEX 01 01:38:73
  TRACK 79 AUDIO
    TITLE "5:cjc044_3852"
    INDEX 01 01:39:49
  TRACK 80 AUDIO
    TITLE "0:"
    INDEX 01 01:43:41
